<svg id="_-e-Cloud_icon" data-name="-e-Cloud_icon" xmlns="http://www.w3.org/2000/svg" width="98" height="48" viewBox="0 0 98 48">
  <metadata><?xpacket begin="﻿" id="W5M0MpCehiHzreSzNTczkc9d"?>
<x:xmpmeta xmlns:x="adobe:ns:meta/" x:xmptk="Adobe XMP Core 5.6-c138 79.159824, 2016/09/14-01:09:01        ">
   <rdf:RDF xmlns:rdf="http://www.w3.org/1999/02/22-rdf-syntax-ns#">
      <rdf:Description rdf:about=""/>
   </rdf:RDF>
</x:xmpmeta>
                                                                                                    
                                                                                                    
                                                                                                    
                                                                                                    
                                                                                                    
                                                                                                    
                                                                                                    
                                                                                                    
                                                                                                    
                                                                                                    
                                                                                                    
                                                                                                    
                                                                                                    
                                                                                                    
                                                                                                    
                                                                                                    
                                                                                                    
                                                                                                    
                                                                                                    
                                                                                                    
                           
<?xpacket end="w"?></metadata>
<defs>
    <style>
      .cls-1 {
        fill: #dd4934;
      }

      .cls-1, .cls-2 {
        fill-rule: evenodd;
      }

      .cls-2 {
        fill: #eb643a;
      }
    </style>
  </defs>
  <path id="_-e-cloud_01" data-name="-e-cloud_01" class="cls-1" d="M999.438,1042.76V1043h-8.887a13.2,13.2,0,0,0-3.173-24.99,27.576,27.576,0,0,0-16.035-22.93c0.6-.045,1.2-0.081,1.8-0.081a23.949,23.949,0,0,1,23.9,24A12.006,12.006,0,0,1,999.438,1042.76Z" transform="translate(-911 -995)"/>
  <path id="_-e-cloud_02" data-name="-e-cloud_02" class="cls-2" d="M985.1,1042.76V1043H921.756v-0.08a11.752,11.752,0,0,1-1.195.08,9.6,9.6,0,0,1,0-19.2c0.276,0,.547.02,0.818,0.04a14.339,14.339,0,0,1,13.523-9.64c0.161,0,.317.02,0.476,0.02a23.9,23.9,0,0,1,47.329,4.78A12.006,12.006,0,0,1,985.1,1042.76Z" transform="translate(-911 -995)"/>
</svg>
